<?xml version="1.0" encoding="utf-8"?>
<!-- Generator: Adobe Illustrator 22.1.0, SVG Export Plug-In . SVG Version: 6.00 Build 0)  -->
<svg version="1.1" id="_ÎÓÈ_1" xmlns="http://www.w3.org/2000/svg" xmlns:xlink="http://www.w3.org/1999/xlink" x="0px" y="0px"
	 viewBox="0 0 1800 1200" style="enable-background:new 0 0 1800 1200;" xml:space="preserve">
<style type="text/css">
	.st0{opacity:0.11;enable-background:new    ;}
	.st1{fill:#FFC857;}
	.st2{fill:#F39C11;}
	.st3{fill:#EC6F63;}
	.st4{fill:#323C47;}
	.st5{fill:#E3A46E;}
	.st6{fill:#F6E2CA;}
	.st7{fill:#DC9964;}
</style>
<title>Artboard 2</title>
<polygon class="st0" points="140.6,549 236.6,495.7 333.6,549 310.3,441.4 393.3,365.4 282.3,363.1 237.1,251.9 "/>
<polygon class="st1" points="275.7,363 237.1,251.9 198.5,363 80.9,365.4 174.6,436.5 140.5,549 237.1,481.9 333.6,549 299.6,436.5 
	393.3,365.4 "/>
<polygon class="st2" points="174.6,436.5 237,416.2 237.1,416.1 80.9,365.4 "/>
<polygon class="st2" points="140.6,549 237.1,481.9 237.1,416.2 237,416.2 "/>
<polygon class="st2" points="237.1,416.1 237.1,416.1 275.7,363 237.1,251.9 "/>
<rect x="237.1" y="416.2" transform="matrix(0.3082 -0.9513 0.9513 0.3082 -231.9053 513.451)" class="st3" width="0" height="0"/>
<polygon class="st2" points="333.6,549 237.1,416.2 237.1,481.9 "/>
<polygon class="st2" points="236.6,416 299.3,436.4 393.3,365.4 "/>
<polygon class="st0" points="472,549 568.1,495.7 665.1,549 641.8,441.4 724.8,365.4 613.8,363.1 568.6,251.9 "/>
<polygon class="st1" points="607.2,363 568.6,251.9 529.9,363 412.4,365.4 506.1,436.5 472,549 568.6,481.9 665.1,549 631,436.5 
	724.8,365.4 "/>
<polygon class="st2" points="506.1,436.5 568.5,416.2 568.5,416.1 412.4,365.4 "/>
<polygon class="st2" points="472,549 568.5,481.9 568.6,416.2 568.5,416.2 "/>
<polygon class="st2" points="568.5,416.1 568.6,416.1 607.2,363 568.6,251.9 "/>
<rect x="568.5" y="416.1" transform="matrix(0.3089 -0.9511 0.9511 0.3089 -2.8555 828.3656)" class="st3" width="0" height="0"/>
<polygon class="st2" points="665.1,549 568.6,416.2 568.5,481.9 "/>
<polygon class="st2" points="568.1,416 630.8,436.4 724.8,365.4 "/>
<polygon class="st0" points="803.5,549 899.6,495.7 996.6,549 973.3,441.4 1056.2,365.4 945.2,363.1 900,251.9 "/>
<polygon class="st1" points="938.7,363 900,251.9 861.4,363 743.8,365.4 837.6,436.5 803.5,549 900,481.9 996.6,549 962.5,436.5 
	1056.2,365.4 "/>
<polygon class="st2" points="837.5,436.5 900,416.2 900,416.1 743.8,365.4 "/>
<polygon class="st2" points="803.5,549 900,481.9 900,416.2 900,416.2 "/>
<polygon class="st2" points="900,416.1 900,416.1 938.6,363 900,251.9 "/>
<rect x="900" y="416.2" transform="matrix(0.309 -0.9511 0.9511 0.309 226.1187 1143.588)" class="st3" width="0" height="0"/>
<polygon class="st2" points="996.6,549 900,416.2 900,481.9 "/>
<polygon class="st2" points="899.6,416 962.3,436.4 1056.2,365.4 "/>
<polygon class="st0" points="1134.9,549 1231,495.7 1328,549 1304.7,441.4 1387.7,365.4 1276.7,363.1 1231.5,251.9 "/>
<polygon class="st1" points="1270.1,363 1231.5,251.9 1192.9,363 1075.3,365.4 1169,436.5 1134.9,549 1231.5,481.9 1328,549 
	1293.9,436.5 1387.7,365.4 "/>
<polygon class="st2" points="1169,436.5 1231.4,416.2 1231.4,416.1 1075.3,365.4 "/>
<polygon class="st2" points="1134.9,549 1231.5,481.9 1231.5,416.2 1231.4,416.2 "/>
<polygon class="st2" points="1231.4,416.1 1231.5,416.1 1270.1,363 1231.5,251.9 "/>
<rect x="1231.5" y="416.2" transform="matrix(0.3082 -0.9513 0.9513 0.3082 456.0399 1459.5001)" class="st3" width="0" height="0"/>
<polygon class="st2" points="1328,549 1231.5,416.2 1231.5,481.9 "/>
<polygon class="st2" points="1231,416 1293.7,436.4 1387.7,365.4 "/>
<path class="st4" d="M1719.1,365.4L1719.1,365.4l-117.6-2.4c-16.9-48.5-8.5-24.5-38.6-111.1l0,0L1524.3,363l-117.5,2.4h-0.1l0,0l0,0
	c18.1,13.7,77.1,58.4,93.7,71l0,0l-34,112.6l0,0l0,0c59.3-41.3,37.2-25.9,96.5-67.2c58.9,41,36.8,25.6,96.5,67.2l0,0l0,0
	l-34.1-112.6L1719.1,365.4L1719.1,365.4z"/>
<path class="st5" d="M1461.6,653.3c2.9,0.2,3.6-1.1,4.6-4.9c0.3-0.7,0.5-1.4,0.7-2.2c0.2-0.8,0.4-1.5,0.5-2.3
	c0.1-0.4,0.2-0.8,0.3-1.2c0-1.4,0-2.8-0.2-4.1c1.1,0.7,2.3,0.6,2.8-0.2c0.4-0.6-0.3-2.8-0.9-4.3c-0.5,1.3-1.2,2.6-1.9,3.9
	c-0.1,0.2-1.7,3.3-1.8,3.6c-0.8,1.6-1.5,3.2-2,4.9C1463.3,648.8,1462.7,651.1,1461.6,653.3z"/>
<path class="st6" d="M1470.4,637.9c-0.1,0-0.3-0.1-0.4-0.2c-0.3-0.4-0.5-0.9-0.6-1.4c0.1-0.4,0.2-0.7,0.4-1
	C1470.2,636.1,1470.4,637,1470.4,637.9z"/>
<path class="st7" d="M1463.3,650.7c-0.3,0.9-0.6,1.8-1,2.6c-0.2,0-0.3,0-0.5,0c1.1-2.2,1.7-4.6,2-7c0.5-1.7,1.2-3.3,2-4.9
	c0.2-0.3,1.7-3.4,1.8-3.6c0.7-1.1,1.3-2.3,1.8-3.5l0.2,0.6c-0.5,1.1-1,2.2-1.6,3.2l-0.3,0.5l-0.3-0.2c0,0.2,0,0.4,0,0.6l-1.3,2.6
	c-0.7,1.4-1.3,2.8-1.8,4.3c0.5,0,1-0.1,1.5-0.2c0.8-0.2,1.2-1,1.4-1.8c-0.1,0.4-0.2,0.9-0.3,1.4c-0.3,0.4-0.6,0.6-1.1,0.8
	c-0.6,0.1-1.1,0.2-1.7,0.3v0.1c-0.1,1.3-0.4,2.6-0.8,3.9c0.4-0.1,0.8-0.2,1.2-0.4c0.6-0.4,1.1-0.9,1.5-1.5c-0.1,0.3-0.2,0.6-0.3,1
	c-0.3,0.3-0.6,0.6-1,0.8C1464.4,650.5,1463.9,650.7,1463.3,650.7z"/>
<path class="st6" d="M1592.4,649.6c0.1,0,0.3,0,0.4,0c0.5-0.2,0.9-0.6,1.2-1.1c0.1-0.4,0.1-0.7,0-1.1
	C1593.3,648,1592.7,648.8,1592.4,649.6z"/>
<polygon class="st0" points="1461.7,722.5 1539.1,644.6 1647.1,668.8 1594.8,572 1653.3,475.8 1546.1,504.6 1471.7,410.3 "/>
<polygon class="st1" points="1539.7,506.3 1471.7,410.3 1465.6,527.8 1353.3,562.8 1463.1,604.9 1461.7,722.5 1535.7,631.2 
	1647.1,668.8 1583.1,570.2 1653.3,475.9 "/>
<polygon class="st2" points="1463.1,604.9 1517.4,568.1 1517.4,568 1353.3,562.8 "/>
<polygon class="st2" points="1461.7,722.5 1535.7,631.2 1517.4,568.1 1517.4,568.1 "/>
<polygon class="st2" points="1517.4,568 1517.4,568 1539.7,506.3 1471.7,410.3 "/>
<rect x="1517.4" y="568" transform="matrix(3.175965e-02 -0.9995 0.9995 3.175965e-02 901.4336 2066.6458)" class="st3" width="0" height="0"/>
<polygon class="st2" points="1647.1,668.8 1517.4,568.1 1535.7,631.2 "/>
<polygon class="st2" points="1516.9,568 1582.8,570.1 1653.3,475.8 "/>
<path class="st6" d="M1466.5,635.1c0.5,0.1,1.5,0.1,2.6-1.8c0.1-1.1-0.8-2-1.9-2.1c-0.4,0-0.8,0.1-1.1,0.3c-1.3,2.2-0.6,3-0.2,3.3
	C1466.1,634.9,1466.3,635,1466.5,635.1z"/>
<path class="st6" d="M1597.1,648.7c-0.5-0.1-1.3-0.6-1.6-2.7c0.4-1,1.6-1.5,2.6-1.1c0.4,0.1,0.7,0.4,0.9,0.7c0.2,2.5-0.8,3-1.2,3
	C1597.5,648.7,1597.3,648.7,1597.1,648.7z"/>
</svg>
