<svg id="_ÎÓÈ_1" data-name="—ÎÓÈ_1" xmlns="http://www.w3.org/2000/svg" viewBox="0 0 1800 1200"><defs><style>.cls-1{fill:#e6e6e6;}.cls-2{opacity:0.11;}.cls-3{fill:#f1c40f;}.cls-4{fill:#f39c11;}.cls-5{fill:#ec6f63;}.cls-6{fill:#323c47;}.cls-7{opacity:0.15;}.cls-8{fill:#e8f3f8;}.cls-9{fill:#e3a46e;}.cls-10{fill:#f6e2ca;}.cls-11,.cls-15{fill:#dc9964;}.cls-12{fill:#f0ae74;}.cls-13{fill:#1d2329;}.cls-14{fill:#272e36;}.cls-15{opacity:0.85;}.cls-16{fill:#5f4836;}</style></defs><title>Artboard 2</title><rect class="cls-1" y="1066.57" width="1800" height="133.43"/><polygon class="cls-2" points="140.55 549.05 236.61 495.74 333.62 549.05 310.33 441.44 393.29 365.4 282.3 363.15 237.09 251.92 140.55 549.05"/><polygon class="cls-3" points="275.69 363.02 237.08 251.93 198.47 363.02 80.88 365.41 174.6 436.47 140.54 549.03 237.08 481.86 333.62 549.03 299.56 436.46 393.28 365.41 275.69 363.02"/><polygon class="cls-4" points="174.59 436.46 237.04 416.17 237.06 416.13 80.9 365.39 174.59 436.46"/><polygon class="cls-4" points="140.55 549.05 237.07 481.85 237.08 416.18 237.04 416.17 140.55 549.05"/><polygon class="cls-4" points="237.06 416.13 237.09 416.14 275.68 363.02 237.09 251.92 237.06 416.13"/><rect class="cls-5" x="237.05" y="416.14" width="0.04" height="0.04" transform="translate(-231.89 513.45) rotate(-72.05)"/><polygon class="cls-4" points="333.62 549.05 237.08 416.18 237.07 481.85 333.62 549.05"/><polygon class="cls-4" points="236.61 415.99 299.33 436.37 393.29 365.4 236.61 415.99"/><polygon class="cls-2" points="472.03 549.05 568.09 495.74 665.1 549.05 641.81 441.44 724.77 365.4 613.77 363.15 568.57 251.92 472.03 549.05"/><polygon class="cls-3" points="607.17 363.02 568.56 251.93 529.94 363.02 412.36 365.41 506.08 436.47 472.02 549.03 568.56 481.86 665.09 549.03 631.04 436.46 724.75 365.41 607.17 363.02"/><polygon class="cls-4" points="506.06 436.46 568.52 416.17 568.53 416.13 412.38 365.39 506.06 436.46"/><polygon class="cls-4" points="472.03 549.05 568.55 481.85 568.56 416.18 568.52 416.17 472.03 549.05"/><polygon class="cls-4" points="568.53 416.13 568.57 416.14 607.16 363.02 568.57 251.92 568.53 416.13"/><rect class="cls-5" x="568.53" y="416.14" width="0.04" height="0.04" transform="translate(-2.87 828.37) rotate(-72.01)"/><polygon class="cls-4" points="665.1 549.05 568.56 416.18 568.55 481.85 665.1 549.05"/><polygon class="cls-4" points="568.09 415.99 630.81 436.37 724.77 365.4 568.09 415.99"/><polygon class="cls-2" points="803.51 549.05 899.57 495.74 996.58 549.05 973.29 441.44 1056.24 365.4 945.25 363.15 900.05 251.92 803.51 549.05"/><polygon class="cls-3" points="938.65 363.02 900.03 251.93 861.42 363.02 743.84 365.41 837.56 436.47 803.5 549.03 900.04 481.86 996.57 549.03 962.51 436.46 1056.23 365.41 938.65 363.02"/><polygon class="cls-4" points="837.54 436.46 900 416.17 900.01 416.13 743.85 365.39 837.54 436.46"/><polygon class="cls-4" points="803.51 549.05 900.03 481.85 900.04 416.18 900 416.17 803.51 549.05"/><polygon class="cls-4" points="900.01 416.13 900.05 416.14 938.64 363.02 900.05 251.92 900.01 416.13"/><rect class="cls-5" x="900.01" y="416.14" width="0.04" height="0.04" transform="translate(226.15 1143.56) rotate(-72)"/><polygon class="cls-4" points="996.58 549.05 900.04 416.18 900.03 481.85 996.58 549.05"/><polygon class="cls-4" points="899.57 415.99 962.29 436.37 1056.24 365.4 899.57 415.99"/><polygon class="cls-2" points="1134.95 549.05 1231.01 495.74 1328.01 549.05 1304.72 441.44 1387.68 365.4 1276.69 363.15 1231.49 251.92 1134.95 549.05"/><polygon class="cls-3" points="1270.09 363.02 1231.47 251.93 1192.86 363.02 1075.28 365.41 1168.99 436.47 1134.94 549.03 1231.47 481.86 1328.01 549.03 1293.95 436.46 1387.67 365.41 1270.09 363.02"/><polygon class="cls-4" points="1168.98 436.46 1231.44 416.17 1231.45 416.13 1075.29 365.39 1168.98 436.46"/><polygon class="cls-4" points="1134.95 549.05 1231.47 481.85 1231.48 416.18 1231.44 416.17 1134.95 549.05"/><polygon class="cls-4" points="1231.45 416.13 1231.49 416.14 1270.08 363.02 1231.49 251.92 1231.45 416.13"/><rect class="cls-5" x="1231.44" y="416.14" width="0.04" height="0.04" transform="translate(456.09 1459.46) rotate(-72.05)"/><polygon class="cls-4" points="1328.01 549.05 1231.48 416.18 1231.47 481.85 1328.01 549.05"/><polygon class="cls-4" points="1231.01 415.99 1293.72 436.37 1387.68 365.4 1231.01 415.99"/><path class="cls-6" d="M1719.1,365.41h0L1601.52,363c-16.86-48.51-8.5-24.46-38.6-111.1v0L1524.3,363l-117.51,2.39-.06,0,0,0h0c18.1,13.72,77.08,58.43,93.71,71h0l-34,112.57,0,0,0,0c59.26-41.26,37.25-25.94,96.53-67.19,58.93,41,36.84,25.63,96.54,67.19l0,0h0l-34.06-112.56,93.72-71.06Z"/><path class="cls-7" d="M1621.42,582.15S1679.94,486,1679.94,486l-107.23,28.72-74.37-94.26v0L1492.15,538l-112.21,35h-.07l109.78,42.17h0l-.3,25.55c-3.14,1.68-8.47,5-9.34,6.26s-7,15.08-7.47,16.08l-2.21-1.08-1,2.15-.84-.42c-2.14,3.91-34,61.66-33.6,66.24.4,4.4,27.28,53.54,32.14,59.81,3.61,4.65,10.64,18.31,14.2,26.45l7.44,38.48L1482,929l6.06.57-1.84,137-31.59,51.67,24.8,27.11,36.78-78.78,15.32-114.06c10.24,76.27,11.25,83.8,15.33,114.06l-16.43,72.23,20.86,2,25.55-74.23-1.77-131.35,1.7.08-6.71-80.65,9-46.79a35.26,35.26,0,0,1,12.38-16.43c4.64-3.57,34.9-24.92,48.54-33.67-.09-2.18-3.19-69.76-3.3-72.09l-.75.06-.18-2.59-1,.07c0-1.48.18-11.4.18-12.87l38.76,8.69h0ZM1480.6,759.48,1461.49,727c11.52-25.3,6-13.17,24.79-54.43l-1.44-.72,1.2-2.16-1.07-.53a28.58,28.58,0,0,0,3.49-5.61s.59,0,.63,0l-.82,69.2h0v0L1506,715c.08,2,.12,2,1.09,3.26a2.79,2.79,0,0,1-.64-.08c-1.59-.69-2.55,1.17-2.55,4.07s.85,2.82,1.11,5.72,2.36,6.55,3.73,6.69c3.27.33,1.67-7.52,5.12,13.5a15.49,15.49,0,0,0-1.73.71l-1.88,4.06c-.74.26-1.43.53-2.07.82l-2.66,5.07a83.87,83.87,0,0,0-9.21,3.24Zm139.57-72.65-1.42.1-6.81,57.56c-9.27,4-43.31,15.13-43.31,15.13l-13.23-.13c-.68-.22-1.36-.44-2.05-.64l-2.7-5.15c-.64-.29-1.34-.56-2.07-.82l-1.88-4.06a14.81,14.81,0,0,0-1.72-.7c3.43-20.87,2-13.19,5.11-13.51,1.42-.16,3.47-3.84,3.73-6.69s1.12-2.81,1.12-5.72-1-4.76-2.56-4.08a3.18,3.18,0,0,1-.62.09c1.29-1.69,1.06-1.36,1.06-6.18a34.22,34.22,0,0,0-2.57-11.56v0c-3.23-7.4-9.06-11.73-17.2-12.75l32.67-32.88,53.42,12a19.92,19.92,0,0,0-.79,4.29c-.62,3.1-.88,5.41,1.81,6.31a31.5,31.5,0,0,0,.82,6.76l-1,.06Z"/><polygon class="cls-8" points="1459.44 659.47 1457.67 662.64 1442.34 654.88 1443.74 651.75 1459.44 659.47"/><path class="cls-9" d="M1461.61,653.32c2.9.24,3.57-1.06,4.56-4.93a9.28,9.28,0,0,0,.68-2.19,20.5,20.5,0,0,0,.48-2.29,11.69,11.69,0,0,0,.31-1.25,27.91,27.91,0,0,0-.17-4.12c1.13.66,2.3.58,2.79-.2.38-.6-.33-2.75-.93-4.31a25.89,25.89,0,0,1-1.9,3.87c-.13.22-1.69,3.26-1.85,3.58a32.55,32.55,0,0,0-2,4.86A21.68,21.68,0,0,1,1461.61,653.32Z"/><path class="cls-10" d="M1470.36,637.92a1.11,1.11,0,0,1-.39-.16,2.93,2.93,0,0,1-.6-1.44,3,3,0,0,1,.42-1A5.4,5.4,0,0,1,1470.36,637.92Z"/><path class="cls-11" d="M1463.35,650.71a26.29,26.29,0,0,1-1,2.63,3.73,3.73,0,0,1-.47,0,21.87,21.87,0,0,0,2-7,32,32,0,0,1,2-4.86c.15-.32,1.71-3.36,1.85-3.58a31.12,31.12,0,0,0,1.78-3.55l.22.6a30.52,30.52,0,0,1-1.64,3.18l-.28.54-.29-.15c0,.16,0,.37,0,.59l-1.31,2.56a34.88,34.88,0,0,0-1.79,4.26,12.76,12.76,0,0,0,1.48-.23c.75-.18,1.18-1,1.43-1.81-.07.41-.16.94-.26,1.43a1.84,1.84,0,0,1-1.08.75,12.84,12.84,0,0,1-1.7.27l0,.09a21.11,21.11,0,0,1-.78,3.86,3.15,3.15,0,0,0,1.21-.43,3.88,3.88,0,0,0,1.48-1.49c-.07.27-.16.63-.28,1a4.65,4.65,0,0,1-1,.79A3.53,3.53,0,0,1,1463.35,650.71Z"/><path class="cls-12" d="M1450.21,643.37l4.76,1.32c5.79-4.14,8.65-7.15,12.28-14a2.87,2.87,0,0,0-1.26-1.11,2.13,2.13,0,0,0-1.11-.12c-1.36.27-10.31,5.63-11.46,7.24A64.85,64.85,0,0,0,1450.21,643.37Z"/><path class="cls-11" d="M1456.33,642.39a22.3,22.3,0,0,0,3.51-2.95,17.07,17.07,0,0,0-3.68-1.84,12.71,12.71,0,0,1,4,1.53,18.65,18.65,0,0,0,2-3c-.39-.27-.78-.56-1.17-.85.1.07,1.19.7,1.24.73.16-.28,1.39-2.23,1.92-3.23.89-1.64,1.35-2.39,2.89-2.32l.18.23a2.46,2.46,0,0,0-2.1,1.27s-2.35,4-2.52,4.27a17.3,17.3,0,0,1-5.33,6,12.92,12.92,0,0,1-1.78,1.06A3.86,3.86,0,0,1,1456.33,642.39Z"/><path class="cls-9" d="M1593.78,667.29c-2.73-1-2.78-2.47-2-6.4a9.2,9.2,0,0,1,.32-2.27,21.63,21.63,0,0,1,.53-2.27,11.43,11.43,0,0,1,.26-1.27,28.33,28.33,0,0,1,1.9-3.66c-1.3.12-2.33-.44-2.44-1.36-.09-.71,1.46-2.35,2.67-3.51a26.74,26.74,0,0,0,.07,4.31c0,.26.15,3.67.16,4a33.17,33.17,0,0,1-.26,5.25A21.9,21.9,0,0,0,1593.78,667.29Z"/><path class="cls-10" d="M1592.39,649.63a1.25,1.25,0,0,0,.43,0,3,3,0,0,0,1.15-1.06,2.89,2.89,0,0,0,0-1.1A5.51,5.51,0,0,0,1592.39,649.63Z"/><path class="cls-11" d="M1593.31,664.19a25.84,25.84,0,0,0-.19,2.82l.43.19a21.89,21.89,0,0,1,1.17-7.15,31.9,31.9,0,0,0,.26-5.25c0-.35-.12-3.77-.15-4a27.33,27.33,0,0,1-.11-4l-.46.45a31.3,31.3,0,0,0,.14,3.57c0,.06,0,.29,0,.61h.32c-.09.14-.19.32-.3.52,0,1.07.09,2.56.1,2.87a32.75,32.75,0,0,1-.19,4.62,13.4,13.4,0,0,1-1.24-.84,2.46,2.46,0,0,1-.53-2.24c-.11.39-.25.92-.36,1.4a1.91,1.91,0,0,0,.65,1.14,14.85,14.85,0,0,0,1.43,1v.09a20.7,20.7,0,0,0-.93,3.83,3,3,0,0,1-.92-.9,4,4,0,0,1-.71-2c0,.28-.12.65-.18,1.05a4.92,4.92,0,0,0,.57,1.15A3.62,3.62,0,0,0,1593.31,664.19Z"/><path class="cls-12" d="M1608.33,663.12l-4.87-.82c-3.48-6.21-4.8-10.14-5.2-17.85a2.94,2.94,0,0,1,1.62-.47,2,2,0,0,1,1,.37c1.12.82,6.95,9.47,7.32,11.42A69.75,69.75,0,0,1,1608.33,663.12Z"/><path class="cls-11" d="M1603.2,659.64a23.66,23.66,0,0,1-1.93-4.16,17,17,0,0,1,4.12-.11,12.78,12.78,0,0,0-4.24-.29,19.47,19.47,0,0,1-.57-3.57l1.42-.27-1.43.13c0-.32-.3-2.61-.37-3.74-.1-1.87-.2-2.73-1.63-3.33l-.26.13a2.47,2.47,0,0,1,1.37,2s.44,4.59.46,4.94a17.61,17.61,0,0,0,2.3,7.66,14.77,14.77,0,0,0,1.17,1.71A4,4,0,0,0,1603.2,659.64Z"/><polygon class="cls-2" points="1461.68 722.55 1539.11 644.62 1647.12 668.84 1594.82 571.96 1653.34 475.84 1546.11 504.56 1471.74 410.3 1461.68 722.55"/><polygon class="cls-3" points="1539.73 506.27 1471.73 410.31 1465.55 527.76 1353.27 562.77 1463.06 604.94 1461.67 722.54 1535.7 631.16 1647.12 668.83 1583.08 570.18 1653.33 475.86 1539.73 506.27"/><polygon class="cls-4" points="1463.05 604.94 1517.39 568.08 1517.39 568.04 1353.28 562.75 1463.05 604.94"/><polygon class="cls-4" points="1461.68 722.55 1535.69 631.15 1517.43 568.08 1517.39 568.08 1461.68 722.55"/><polygon class="cls-4" points="1517.39 568.04 1517.43 568.04 1539.72 506.27 1471.74 410.3 1517.39 568.04"/><rect class="cls-5" x="1517.39" y="568.04" width="0.04" height="0.04" transform="translate(901.43 2066.66) rotate(-88.18)"/><polygon class="cls-4" points="1647.12 668.84 1517.43 568.08 1535.69 631.15 1647.12 668.84"/><polygon class="cls-4" points="1516.93 568.02 1582.84 570.14 1653.34 475.84 1516.93 568.02"/><path class="cls-12" d="M1458,659.47l-12.34-5.88c.68-1.59,3-6.71,4.59-10.22.6.09,4.06.77,5.71-.35a17.26,17.26,0,0,0,6.67-6.78c.17-.31,2.52-4.27,2.52-4.27a2.44,2.44,0,0,1,2.1-1.27h0a2.49,2.49,0,0,1,2.52,2.74,19.24,19.24,0,0,1-2.06,4.49c-.13.22-1.69,3.26-1.84,3.58a32,32,0,0,0-2,4.86,22.41,22.41,0,0,1-2.43,7.92A36.52,36.52,0,0,1,1458,659.47Z"/><path class="cls-10" d="M1466.54,635.11c.51.14,1.47.06,2.62-1.75a2,2,0,0,0-3-1.84c-1.27,2.16-.56,3-.19,3.28A1.86,1.86,0,0,0,1466.54,635.11Z"/><path class="cls-12" d="M1594.47,674.41l13.67-.09c.06-1.72.14-7.35.19-11.2-.59-.17-4-1-5-2.73a17.29,17.29,0,0,1-3.17-9c0-.35-.46-4.94-.46-4.94a2.47,2.47,0,0,0-1.37-2h0a2.47,2.47,0,0,0-3.43,1.41c-.33.82-.15,4.12-.05,4.93,0,.26.14,3.68.15,4a31.9,31.9,0,0,1-.26,5.25,22.36,22.36,0,0,0-1.15,8.2A36.18,36.18,0,0,0,1594.47,674.41Z"/><path class="cls-10" d="M1597.05,648.71c-.52-.08-1.35-.57-1.63-2.69a2,2,0,0,1,3.51-.39c.24,2.49-.77,3-1.22,3A1.68,1.68,0,0,1,1597.05,648.71Z"/><rect class="cls-8" x="1593.48" y="673.48" width="15.85" height="2.96" transform="translate(-41.88 109.56) rotate(-3.87)"/><path class="cls-13" d="M1451.24,1128s-1.23,4.82,1.76,6.78l5.59,3.65v2.38l2.91,4.1c9.83,6.48,18,.45,18,.45v-6.56c-7.57,4.72-16.25,2.5-19.44-1.26C1455.34,1132,1451.54,1135.75,1451.24,1128Z"/><path class="cls-14" d="M1451.23,1128a.15.15,0,0,0,0-.06,13.84,13.84,0,0,0,.41,3c1.17,3.77,4.46,2,8.35,6.54,3,3.54,10.93,5.72,18.17,2a13.32,13.32,0,0,0,1.27-.72c.63-1.79.91-8.56-.23-12.36-11.72-6.4-16.23-8.87-19.38-9.88a4.66,4.66,0,0,0-5.19,1.68A19.18,19.18,0,0,0,1451.23,1128Z"/><path class="cls-13" d="M1457.43,1123.15l13.94,13L1480,1132a23.12,23.12,0,0,0-.77-5.53c-11.71-6.4-16.24-8.86-19.37-9.88C1458.21,1116,1457.43,1123.15,1457.43,1123.15Z"/><path class="cls-13" d="M1558.66,1128s1.22,4.82-1.76,6.78l-5.59,3.65v2.38l-2.91,4.1c-9.83,6.48-18,.45-18,.45v-6.56c7.57,4.72,16.25,2.5,19.44-1.26C1554.56,1132,1558.36,1135.75,1558.66,1128Z"/><path class="cls-14" d="M1558.67,1128a.15.15,0,0,1,0-.06,13.84,13.84,0,0,1-.41,3c-1.17,3.77-4.46,2-8.35,6.54-3,3.54-10.93,5.72-18.17,2a13.32,13.32,0,0,1-1.27-.72c-.63-1.79-.91-8.56.23-12.36,11.72-6.4,16.23-8.87,19.38-9.88a4.66,4.66,0,0,1,5.19,1.68A19.18,19.18,0,0,1,1558.67,1128Z"/><path class="cls-13" d="M1554.77,1124.76l-16.24,11.39-8.62-4.18a23.12,23.12,0,0,1,.77-5.53c11.71-6.4,16.24-8.86,19.37-9.88a4.7,4.7,0,0,1,4.63,1Z"/><polygon class="cls-6" points="1551.15 1122.92 1538.19 1132.01 1529.89 1127.98 1504.95 942.32 1480.01 1127.98 1471.71 1132.01 1458.74 1122.92 1461.59 911.48 1548.31 911.48 1551.15 1122.92"/><path class="cls-14" d="M1538.19,1132l13-9.09-2.85-211.44h-86.72l-.2,14.73,22.53,1.51L1471.71,1132l8.3-4L1505,942.32l12.33,91.81-3.57-104.42,12.44.83Z"/><path class="cls-12" d="M1525.78,707.94c-1.23.52-44.74.52-46,0-1.59-.69-2.55,1.17-2.55,4.07s.85,2.82,1.11,5.72,2.36,6.55,3.73,6.69c3.55.36,1.34-9,6.15,19.73h29.09c4.77-28.53,2.7-19.38,6.15-19.73,1.37-.14,3.47-3.79,3.73-6.69s1.11-2.83,1.11-5.72S1527.37,707.25,1525.78,707.94Z"/><path class="cls-15" d="M1528.34,712c0,2.9-.86,2.82-1.13,5.72s-2.34,6.56-3.72,6.69c-3.45.36-1.37-8.8-6.15,19.74h-14.55V708.33c11.17,0,22.37-.13,23-.4C1527.37,707.25,1528.34,709.11,1528.34,712Z"/><path class="cls-8" d="M1526.32,752.08c-.15-.09-5-3-23.52-3s-23.38,2.88-23.53,3l6.22-13.45s5.85-3,17.31-2.89c11.45-.14,17.3,2.89,17.3,2.89Z"/><path class="cls-16" d="M1526.12,706.36c-.25,1.5-2.6,2.34-4.55,9.14-2.17,7.52-2.36,8.67-2.75,10.31s-.91,1.52-.91,1.52c-12.19.5-17.91.5-30.21,0,0,0-.53.15-.92-1.52s-.57-2.79-2.74-10.31c-2-6.8-4.3-7.64-4.55-9.14-.41-2.24-1.65-28.9,23.31-29.11C1527.77,677.46,1526.53,704.12,1526.12,706.36Z"/><path class="cls-2" d="M1526.12,706.36c-.25,1.5-2.59,2.34-4.54,9.14-2.18,7.52-2.36,8.67-2.75,10.31s-.92,1.52-.92,1.52c-12.19.5-17.91.5-30.22,0,0,0-.51.15-.91-1.52s-.57-2.79-2.75-10.31l-.16-.56c3.66,0,8-.11,9.72-.05a30.44,30.44,0,0,0,29.58-20.41,14.66,14.66,0,0,0,.47-4.23A34.41,34.41,0,0,1,1526.12,706.36Z"/><path class="cls-6" d="M1610.14,675.49l-18,1.25-6.81,57.56c-9.27,4-43.31,15.13-43.31,15.13l-13.23-.13c-.68-.22-1.36-.44-2-.64l-2.7-5.15c-10-4.55-32.53-4.54-42.51,0l-2.66,5.07a83.87,83.87,0,0,0-9.21,3.24L1454,749.29l-19.11-32.51,24.79-54.43-17.74-8.87c-2.14,3.91-34,61.66-33.6,66.24.4,4.4,27.28,53.54,32.14,59.81,3.61,4.65,10.64,18.31,14.2,26.45l7.44,38.48-6.7,74.39,42.8,4,4.58-32.33,4.36,32.45,43,2.12-6.71-80.65,9-46.79a35.26,35.26,0,0,1,12.38-16.43c4.64-3.57,34.9-24.92,48.54-33.67Z"/><polygon class="cls-14" points="1434.89 716.78 1454.01 749.29 1429.82 716.78 1455.3 660.16 1459.67 662.35 1434.89 716.78"/><polygon class="cls-14" points="1502.8 890.54 1499.84 911.48 1505.62 911.48 1502.8 890.54"/><path class="cls-14" d="M1613.44,747.56c-13.43,8.62-43,29.44-48.31,33.49,5.2-4.27,44.28-36.9,44.28-36.9l-2.51-68.44,3.24-.23Z"/></svg>